<?xml version="1.0" standalone="no"?>
<!DOCTYPE svg PUBLIC "-//W3C//DTD SVG 20010904//EN"
 "http://www.w3.org/TR/2001/REC-SVG-20010904/DTD/svg10.dtd">
<svg version="1.0" xmlns="http://www.w3.org/2000/svg"
 width="260.000000pt" height="260.000000pt" viewBox="0 0 260.000000 260.000000"
 preserveAspectRatio="xMidYMid meet">
<metadata>
Created by potrace 1.11, written by Peter Selinger 2001-2013
</metadata>
<g transform="translate(0.000000,260.000000) scale(0.100000,-0.100000)"
fill="#000000" stroke="none">
<path d="M1910 2226 c-130 -36 -205 -117 -231 -249 -5 -29 -9 -163 -9 -299 l0
-248 -77 0 c-43 0 -83 -4 -88 -8 -11 -7 -13 -87 -3 -97 3 -3 42 -6 87 -7 l81
-1 -1 -459 c0 -252 3 -463 6 -468 9 -14 101 -12 112 3 5 7 8 207 8 468 l-2
457 175 0 c96 1 175 2 177 4 4 4 7 56 6 86 -1 22 -1 22 -180 22 l-178 0 1 263
c2 260 2 264 27 313 21 40 36 54 82 77 91 47 191 38 284 -24 l42 -28 31 39
c16 21 30 42 30 46 0 15 -69 65 -128 92 -66 30 -177 38 -252 18z"/>
<path d="M301 2211 c-8 -5 -10 -255 -9 -917 l3 -909 57 -3 c47 -2 57 0 61 15
3 10 5 149 5 308 0 160 3 306 6 327 28 178 164 303 339 312 186 9 324 -82 378
-249 8 -27 14 -145 18 -375 l6 -335 54 -3 c32 -2 57 1 61 8 4 6 6 158 5 338
-2 292 -5 335 -22 399 -61 217 -235 339 -477 332 -138 -4 -274 -65 -337 -151
-16 -23 -29 -35 -30 -27 0 8 -1 218 -1 467 -1 294 -5 455 -11 459 -15 9 -93
12 -106 4z"/>
</g>
</svg>
